<!-- flower.svg -->
<svg xmlns="http://www.w3.org/2000/svg" viewBox="0 0 24 24" width="24" height="24">
  <path fill="#000000" d="M12 2C11.4477 2 11 2.44772 11 3V6.58579L9.29289 4.87868C8.90237 4.48816 8.26921 4.48816 7.87868 4.87868C7.48816 5.26921 7.48816 5.90237 7.87868 6.29289L9.58579 8H6C5.44772 8 5 8.44772 5 9C5 9.55228 5.44772 10 6 10H9.58579L7.87868 11.7071C7.48816 12.0976 7.48816 12.7308 7.87868 13.1213C8.26921 13.5118 8.90237 13.5118 9.29289 13.1213L11 11.4142V15C11 15.5523 11.4477 16 12 16C12.5523 16 13 15.5523 13 15V11.4142L14.7071 13.1213C15.0976 13.5118 15.7308 13.5118 16.1213 13.1213C16.5118 12.7308 16.5118 12.0976 16.1213 11.7071L14.4142 10H18C18.5523 10 19 9.55228 19 9C19 8.44772 18.5523 8 18 8H14.4142L16.1213 6.29289C16.5118 5.90237 16.5118 5.26921 16.1213 4.87868C15.7308 4.48816 15.0976 4.48816 14.7071 4.87868L13 6.58579V3C13 2.44772 12.5523 2 12 2Z"/>
</svg>
